<svg width="569" height="569" viewBox="0 0 569 569" fill="none" xmlns="http://www.w3.org/2000/svg">
<g filter="url(#filter0_f_408_22)">
<rect x="284.769" y="84" width="283.93" height="283.93" rx="40" transform="rotate(45 284.769 84)" fill="url(#paint0_linear_408_22)" fill-opacity="0.5"/>
</g>
<rect x="284.769" y="84" width="283.93" height="283.93" rx="40" transform="rotate(45 284.769 84)" fill="url(#paint1_linear_408_22)"/>
<path d="M270.874 220.392C270.874 210.856 266.202 206.088 256.858 206.088L258.586 189H275.482V196.488H258.778L257.818 205.32C271.642 205.64 278.554 210.536 278.554 220.008C278.554 223.272 277.69 226.408 275.962 229.416C274.234 232.36 271.962 234.952 269.146 237.192C263.834 241.352 258.106 244.488 251.962 246.6V245.736L253.018 245.16C259.098 241.832 263.802 237.704 267.13 232.776C269.626 229 270.874 224.872 270.874 220.392ZM312.521 217H312.921L298.921 237H298.521L312.521 217ZM295.721 221C295.721 219.907 296.228 218.973 297.241 218.2C298.254 217.4 299.481 217 300.921 217C304.388 217 306.121 218.333 306.121 221C306.121 222.093 305.601 223.04 304.561 223.84C303.548 224.613 302.334 225 300.921 225C297.454 225 295.721 223.667 295.721 221ZM300.921 217.32C300.148 217.32 299.481 217.68 298.921 218.4C298.388 219.12 298.121 220.04 298.121 221.16C298.121 222.253 298.374 223.12 298.881 223.76C299.414 224.373 300.081 224.68 300.881 224.68C301.681 224.68 302.348 224.32 302.881 223.6C303.441 222.88 303.721 221.973 303.721 220.88C303.721 219.76 303.454 218.893 302.921 218.28C302.388 217.64 301.721 217.32 300.921 217.32ZM305.521 233C305.521 231.907 306.028 230.973 307.041 230.2C308.054 229.4 309.281 229 310.721 229C314.188 229 315.921 230.333 315.921 233C315.921 234.093 315.401 235.04 314.361 235.84C313.348 236.613 312.134 237 310.721 237C307.254 237 305.521 235.667 305.521 233ZM310.721 229.32C309.948 229.32 309.281 229.68 308.721 230.4C308.188 231.12 307.921 232.04 307.921 233.16C307.921 234.253 308.174 235.12 308.681 235.76C309.214 236.373 309.881 236.68 310.681 236.68C311.481 236.68 312.148 236.32 312.681 235.6C313.241 234.88 313.521 233.973 313.521 232.88C313.521 231.76 313.254 230.893 312.721 230.28C312.188 229.64 311.521 229.32 310.721 229.32ZM262.521 314.26C257.971 314.26 254.266 312.96 251.406 310.36C248.546 307.76 247.116 303.752 247.116 298.335C247.116 292.918 248.589 288.715 251.536 285.725C254.526 282.735 258.296 281.24 262.846 281.24C267.439 281.24 271.166 282.54 274.026 285.14C276.886 287.74 278.316 291.748 278.316 297.165C278.316 302.582 276.821 306.785 273.831 309.775C270.884 312.765 267.114 314.26 262.521 314.26ZM262.976 281.76C259.683 281.76 256.953 283.233 254.786 286.18C252.619 289.083 251.536 293.157 251.536 298.4C251.536 303.6 252.533 307.457 254.526 309.97C256.519 312.483 259.163 313.74 262.456 313.74C265.749 313.74 268.479 312.288 270.646 309.385C272.813 306.438 273.896 302.365 273.896 297.165C273.896 291.922 272.899 288.043 270.906 285.53C268.913 283.017 266.269 281.76 262.976 281.76ZM294.309 278.445V281.5H299.444V282.02H294.309V314H289.759V282.02H288.394V281.5H289.759V278.445C289.759 273.722 290.777 270.363 292.814 268.37C294.85 266.333 298.144 265.293 302.694 265.25V265.77C299.704 265.813 297.559 266.832 296.259 268.825C294.959 270.775 294.309 273.982 294.309 278.445ZM316.107 278.445V281.5H321.242V282.02H316.107V314H311.557V282.02H310.192V281.5H311.557V278.445C311.557 273.722 312.575 270.363 314.612 268.37C316.648 266.333 319.942 265.293 324.492 265.25V265.77C321.502 265.813 319.357 266.832 318.057 268.825C316.757 270.775 316.107 273.982 316.107 278.445Z" fill="#4A4A4A"/>
<path d="M236.632 370.032H245.416V372.448H236.632V370.032ZM235.608 369.216V373.264H246.504V369.216H235.608ZM238.232 367.488V368.336H243.816V367.488H238.232ZM240.424 369.472V372.816H241.448V369.472H240.424ZM240.92 365.536C242.552 367.104 245.432 368.688 247.784 369.504C247.96 369.2 248.232 368.768 248.488 368.512C246.008 367.776 243.224 366.304 241.416 364.56H240.28C238.952 366.112 236.248 367.744 233.528 368.672C233.752 368.928 234.024 369.344 234.168 369.616C236.824 368.624 239.496 366.992 240.92 365.536ZM237.608 370.512C238.008 371.088 238.376 371.872 238.504 372.384L239.432 372.048C239.272 371.536 238.888 370.784 238.472 370.224L237.608 370.512ZM243.368 370.16C243.176 370.704 242.76 371.552 242.456 372.096L243.304 372.384C243.624 371.904 244.024 371.168 244.392 370.48L243.368 370.16ZM236.552 374.032V379.28H237.736V374.88H244.376V379.264H245.592V374.032H236.552ZM237.256 375.952V376.832H244.904V375.952H237.256ZM237.256 377.92V378.784H244.904V377.92H237.256ZM254.824 366.16H262.424V367.808H254.824V366.16ZM253.624 365.184V368.8H263.688V365.184H253.624ZM254.136 372.592H263.096V373.728H254.136V372.592ZM254.136 374.576H263.096V375.728H254.136V374.576ZM254.136 370.624H263.096V371.744H254.136V370.624ZM252.936 369.728V376.608H264.328V369.728H252.936ZM255.992 376.592C254.984 377.248 252.888 378.016 251.208 378.416C251.496 378.656 251.896 379.04 252.104 379.296C253.752 378.88 255.832 378.112 257.112 377.328L255.992 376.592ZM259.896 377.424C261.592 377.92 263.768 378.752 264.952 379.312L265.992 378.448C264.744 377.92 262.6 377.136 260.936 376.64L259.896 377.424ZM268.968 365.328C271.448 367.68 271.784 370.272 271.784 373.2C271.784 375.28 271.656 377.36 271.256 377.872C271.144 378.032 271 378.096 270.776 378.128C270.456 378.16 269.896 378.16 269.224 378.112C269.432 378.448 269.544 378.896 269.56 379.264C270.152 379.296 270.76 379.296 271.256 379.2C271.64 379.136 271.944 378.96 272.152 378.688C272.776 377.824 272.936 375.552 272.936 373.216C272.936 370.128 272.568 367.264 269.816 364.704L268.968 365.328ZM271.8 370.432C271.144 371.904 269.816 373.568 268.648 374.4C268.92 374.624 269.256 375.024 269.432 375.312C270.632 374.304 271.976 372.496 272.68 370.944L271.8 370.432ZM272.6 364.656C271.768 366.288 270.248 368.128 268.68 369.344C268.936 369.536 269.32 369.872 269.496 370.096C271.096 368.784 272.648 366.976 273.64 365.184L272.6 364.656ZM280.136 366.176H281.848V368.096H280.136V366.176ZM277.56 366.176H279.24V368.096H277.56V366.176ZM275.048 366.176H276.648V368.096H275.048V366.176ZM274.008 365.248V369.04H282.936V365.248H274.008ZM275.528 368.608C274.936 369.952 273.944 371.216 272.84 372.064C273.096 372.224 273.544 372.592 273.736 372.768C274.84 371.84 275.944 370.4 276.6 368.88L275.528 368.608ZM275.288 370.128L274.792 371.12H282.536V370.128H275.288ZM282.152 370.128V370.368C282.008 375.744 281.832 377.616 281.528 378.016C281.4 378.208 281.272 378.24 281.048 378.24C280.824 378.24 280.312 378.24 279.72 378.192C279.88 378.48 279.992 378.944 280.008 379.248C280.632 379.28 281.224 379.296 281.576 379.248C281.992 379.2 282.264 379.072 282.52 378.72C282.952 378.16 283.096 376.256 283.272 370.672C283.272 370.512 283.272 370.128 283.272 370.128H282.152ZM275.288 373.216H279.656V374.704H275.288V373.216ZM274.328 372.384V375.536H280.632V372.384H274.328ZM277.016 371.44V377.568L277.976 377.392V371.44H277.016ZM273.64 377.216L273.752 378.24C275.432 378.08 277.816 377.84 280.12 377.616V376.688C277.688 376.896 275.224 377.104 273.64 377.216ZM279.032 375.952C279.528 376.688 279.992 377.664 280.168 378.336L281.064 378C280.872 377.36 280.376 376.384 279.864 375.664L279.032 375.952ZM286.664 375.152V376.208H300.952V375.152H286.664ZM293.128 364.56V366.592H294.376V364.56H293.128ZM288.168 372.24V373.216H298.264V372.24H288.168ZM293.144 374.208V378.032C293.144 378.272 293.048 378.336 292.76 378.352C292.488 378.352 291.384 378.368 290.296 378.336C290.456 378.624 290.648 379.024 290.712 379.328C292.152 379.328 293.08 379.328 293.64 379.184C294.2 379.024 294.392 378.736 294.392 378.064V374.208H293.144ZM297.992 372.24V372.48C296.984 373.152 295.032 373.904 293.368 374.32C293.544 374.48 293.832 374.8 293.976 375.008C295.864 374.544 297.944 373.744 299.384 372.848L298.584 372.192L298.312 372.24H297.992ZM290.024 368.928H297.592V370.368H290.024V368.928ZM288.84 368.032V371.264H298.84V368.032H288.84ZM286.808 365.968V367.008H300.744V365.968H286.808ZM308.52 365.28V366.208H318.472V365.28H308.52ZM310.296 368.416V369.04H316.664V368.416H310.296ZM310.296 369.744V370.368H316.664V369.744H310.296ZM309.656 367.04V371.472H310.76V367.744H316.12V371.472H317.24V367.04H309.656ZM308.072 371.072V373.232H309.128V371.84H317.656V373.232H318.744V371.072H308.072ZM310.136 372.32C309.752 372.912 309.128 373.584 308.44 373.952L309.192 374.576C309.912 374.128 310.52 373.392 310.936 372.768L310.136 372.32ZM311.096 372.288V373.296C311.096 374.176 311.416 374.368 312.632 374.368C312.888 374.368 314.584 374.368 314.856 374.368C315.672 374.368 315.944 374.128 316.04 373.2C315.784 373.152 315.416 373.04 315.224 372.928C315.16 373.552 315.08 373.648 314.712 373.648C314.36 373.648 312.984 373.648 312.728 373.648C312.184 373.648 312.088 373.584 312.088 373.296V372.288H311.096ZM312.248 371.936C312.872 372.272 313.56 372.816 313.912 373.216L314.632 372.704C314.28 372.288 313.56 371.792 312.952 371.456L312.248 371.936ZM315.768 372.704C316.456 373.264 317.24 374.048 317.592 374.592L318.392 374.128C318.024 373.568 317.224 372.8 316.536 372.272L315.768 372.704ZM311.928 374.032C311.144 374.896 309.72 375.808 307.848 376.464C308.072 376.624 308.392 376.976 308.552 377.216C310.536 376.4 312.008 375.408 313.048 374.272L311.928 374.032ZM316.056 375.056V375.248C315 376.768 312.024 377.952 307.752 378.416C307.976 378.672 308.232 379.056 308.344 379.312C312.824 378.72 315.912 377.44 317.272 375.424L316.52 375.008L316.296 375.056H316.056ZM311.032 375.504L310.04 375.872C311.656 377.84 314.76 378.944 318.264 379.344C318.408 379.04 318.696 378.592 318.936 378.352C315.528 378.064 312.44 377.136 311.032 375.504ZM311.304 375.056L310.536 375.824H316.392V375.056H311.304ZM312.744 365.712C312.68 366.176 312.504 366.832 312.36 367.344L313.4 367.504C313.592 367.072 313.816 366.464 314.056 365.856L312.744 365.712ZM307.112 364.656C306.344 367.12 305.08 369.584 303.672 371.184C303.88 371.488 304.2 372.128 304.312 372.416C305.896 370.544 307.32 367.728 308.232 364.96L307.112 364.656ZM305.832 368.576V379.28H306.968V367.504L306.936 367.472L305.832 368.576ZM322.216 365.552V366.544H335.768V365.552H322.216ZM328.296 364.592V373.728H329.512V364.592H328.296ZM324.44 370.192H333.464V371.264H324.44V370.192ZM324.44 368.384H333.464V369.44H324.44V368.384ZM323.304 367.584V372.08H334.648V367.584H323.304ZM331.256 372.624C332.664 373.216 334.28 374.288 335.096 375.104L335.912 374.4C335.096 373.616 333.448 372.592 332.056 372.032L331.256 372.624ZM322.2 373.344L322.248 374.4C325.208 374.384 329.8 374.304 334.12 374.208L334.184 373.264C329.768 373.328 325.096 373.36 322.2 373.344ZM325.208 375.296V377.568C325.208 378.768 325.688 379.072 327.512 379.072C327.896 379.072 330.744 379.072 331.16 379.072C332.6 379.072 332.968 378.656 333.128 376.848C332.808 376.784 332.344 376.608 332.072 376.448C332.008 377.856 331.864 378.048 331.064 378.048C330.424 378.048 328.04 378.048 327.576 378.048C326.568 378.048 326.392 377.984 326.392 377.568V375.296H325.208ZM327.496 375.12C328.456 375.616 329.608 376.4 330.168 376.96L330.968 376.224C330.392 375.68 329.224 374.928 328.264 374.464L327.496 375.12ZM333.048 375.616C333.816 376.576 334.584 377.856 334.904 378.672L335.992 378.272C335.672 377.44 334.856 376.176 334.072 375.248L333.048 375.616ZM323.336 375.232C323.016 376.208 322.472 377.456 321.816 378.224L322.856 378.8C323.496 377.968 324.008 376.672 324.36 375.664L323.336 375.232Z" fill="#4A4A4A"/>
<defs>
<filter id="filter0_f_408_22" x="0.568848" y="0.568542" width="568.4" height="568.401" filterUnits="userSpaceOnUse" color-interpolation-filters="sRGB">
<feFlood flood-opacity="0" result="BackgroundImageFix"/>
<feBlend mode="normal" in="SourceGraphic" in2="BackgroundImageFix" result="shape"/>
<feGaussianBlur stdDeviation="50" result="effect1_foregroundBlur_408_22"/>
</filter>
<linearGradient id="paint0_linear_408_22" x1="690.398" y1="36.0401" x2="285.452" y2="338.123" gradientUnits="userSpaceOnUse">
<stop stop-color="#B5CEF0"/>
<stop offset="0.566093" stop-color="#FFF6F6"/>
<stop offset="1" stop-color="#FFE2E2"/>
</linearGradient>
<linearGradient id="paint1_linear_408_22" x1="690.398" y1="36.0401" x2="285.452" y2="338.123" gradientUnits="userSpaceOnUse">
<stop stop-color="#D3E2F7"/>
<stop offset="0.566093" stop-color="#FFF6F6"/>
<stop offset="1" stop-color="#FFE2E2"/>
</linearGradient>
</defs>
</svg>
