<svg width="769" height="769" viewBox="0 0 769 769" fill="none" xmlns="http://www.w3.org/2000/svg">
<g filter="url(#filter0_f_413_93)">
<rect x="384.5" y="84" width="424.971" height="424.971" rx="40" transform="rotate(45 384.5 84)" fill="url(#paint0_linear_413_93)" fill-opacity="0.5"/>
</g>
<rect x="384.5" y="84" width="424.971" height="424.971" rx="40" transform="rotate(45 384.5 84)" fill="url(#paint1_linear_413_93)"/>
<path d="M358.168 258.24C358.168 246.32 352.328 240.36 340.648 240.36L342.808 219H363.928V228.36H343.048L341.848 239.4C359.128 239.8 367.768 245.92 367.768 257.76C367.768 261.84 366.688 265.76 364.528 269.52C362.368 273.2 359.528 276.44 356.008 279.24C349.368 284.44 342.208 288.36 334.528 291V289.92L335.848 289.2C343.448 285.04 349.328 279.88 353.488 273.72C356.608 269 358.168 263.84 358.168 258.24ZM424.927 239H425.727L397.727 279H396.927L424.927 239ZM391.327 247C391.327 244.813 392.34 242.947 394.367 241.4C396.393 239.8 398.847 239 401.727 239C408.66 239 412.127 241.667 412.127 247C412.127 249.187 411.087 251.08 409.007 252.68C406.98 254.227 404.553 255 401.727 255C394.793 255 391.327 252.333 391.327 247ZM401.727 239.64C400.18 239.64 398.847 240.36 397.727 241.8C396.66 243.24 396.127 245.08 396.127 247.32C396.127 249.507 396.633 251.24 397.647 252.52C398.713 253.747 400.047 254.36 401.647 254.36C403.247 254.36 404.58 253.64 405.647 252.2C406.767 250.76 407.327 248.947 407.327 246.76C407.327 244.52 406.793 242.787 405.727 241.56C404.66 240.28 403.327 239.64 401.727 239.64ZM410.927 271C410.927 268.813 411.94 266.947 413.967 265.4C415.993 263.8 418.447 263 421.327 263C428.26 263 431.727 265.667 431.727 271C431.727 273.187 430.687 275.08 428.607 276.68C426.58 278.227 424.153 279 421.327 279C414.393 279 410.927 276.333 410.927 271ZM421.327 263.64C419.78 263.64 418.447 264.36 417.327 265.8C416.26 267.24 415.727 269.08 415.727 271.32C415.727 273.507 416.233 275.24 417.247 276.52C418.313 277.747 419.647 278.36 421.247 278.36C422.847 278.36 424.18 277.64 425.247 276.2C426.367 274.76 426.927 272.947 426.927 270.76C426.927 268.52 426.393 266.787 425.327 265.56C424.26 264.28 422.927 263.64 421.327 263.64Z" fill="black"/>
<path d="M368.093 373.2C364.593 373.2 361.743 372.2 359.543 370.2C357.343 368.2 356.243 365.117 356.243 360.95C356.243 356.783 357.376 353.55 359.643 351.25C361.943 348.95 364.843 347.8 368.343 347.8C371.876 347.8 374.743 348.8 376.943 350.8C379.143 352.8 380.243 355.883 380.243 360.05C380.243 364.217 379.093 367.45 376.793 369.75C374.526 372.05 371.626 373.2 368.093 373.2ZM368.443 348.2C365.91 348.2 363.81 349.333 362.143 351.6C360.476 353.833 359.643 356.967 359.643 361C359.643 365 360.41 367.967 361.943 369.9C363.476 371.833 365.51 372.8 368.043 372.8C370.576 372.8 372.676 371.683 374.343 369.45C376.01 367.183 376.843 364.05 376.843 360.05C376.843 356.017 376.076 353.033 374.543 351.1C373.01 349.167 370.976 348.2 368.443 348.2ZM392.545 345.65V348H396.495V348.4H392.545V373H389.045V348.4H387.995V348H389.045V345.65C389.045 342.017 389.828 339.433 391.395 337.9C392.962 336.333 395.495 335.533 398.995 335.5V335.9C396.695 335.933 395.045 336.717 394.045 338.25C393.045 339.75 392.545 342.217 392.545 345.65ZM409.313 345.65V348H413.263V348.4H409.313V373H405.813V348.4H404.763V348H405.813V345.65C405.813 342.017 406.596 339.433 408.163 337.9C409.729 336.333 412.263 335.533 415.763 335.5V335.9C413.463 335.933 411.813 336.717 410.813 338.25C409.813 339.75 409.313 342.217 409.313 345.65Z" fill="black"/>
<path d="M304.82 502.064H322.388V506.896H304.82V502.064ZM302.772 500.432V508.528H324.564V500.432H302.772ZM308.02 496.976V498.672H319.188V496.976H308.02ZM312.404 500.944V507.632H314.452V500.944H312.404ZM313.396 493.072C316.66 496.208 322.42 499.376 327.124 501.008C327.476 500.4 328.02 499.536 328.532 499.024C323.572 497.552 318.004 494.608 314.388 491.12H312.116C309.46 494.224 304.052 497.488 298.612 499.344C299.06 499.856 299.604 500.688 299.892 501.232C305.204 499.248 310.548 495.984 313.396 493.072ZM306.772 503.024C307.572 504.176 308.308 505.744 308.564 506.768L310.42 506.096C310.1 505.072 309.332 503.568 308.5 502.448L306.772 503.024ZM318.292 502.32C317.908 503.408 317.076 505.104 316.468 506.192L318.164 506.768C318.804 505.808 319.604 504.336 320.34 502.96L318.292 502.32ZM304.66 510.064V520.56H307.028V511.76H320.308V520.528H322.74V510.064H304.66ZM306.068 513.904V515.664H321.364V513.904H306.068ZM306.068 517.84V519.568H321.364V517.84H306.068ZM353.967 494.32H369.167V497.616H353.967V494.32ZM351.567 492.368V499.6H371.695V492.368H351.567ZM352.591 507.184H370.511V509.456H352.591V507.184ZM352.591 511.152H370.511V513.456H352.591V511.152ZM352.591 503.248H370.511V505.488H352.591V503.248ZM350.191 501.456V515.216H372.975V501.456H350.191ZM356.303 515.184C354.287 516.496 350.095 518.032 346.735 518.832C347.311 519.312 348.111 520.08 348.527 520.592C351.823 519.76 355.983 518.224 358.543 516.656L356.303 515.184ZM364.111 516.848C367.503 517.84 371.855 519.504 374.223 520.624L376.303 518.896C373.807 517.84 369.519 516.272 366.191 515.28L364.111 516.848ZM395.017 492.656C399.977 497.36 400.649 502.544 400.649 508.4C400.649 512.56 400.393 516.72 399.593 517.744C399.369 518.064 399.081 518.192 398.633 518.256C397.993 518.32 396.873 518.32 395.529 518.224C395.945 518.896 396.169 519.792 396.201 520.528C397.385 520.592 398.601 520.592 399.593 520.4C400.361 520.272 400.969 519.92 401.385 519.376C402.633 517.648 402.953 513.104 402.953 508.432C402.953 502.256 402.217 496.528 396.713 491.408L395.017 492.656ZM400.681 502.864C399.369 505.808 396.713 509.136 394.377 510.8C394.921 511.248 395.593 512.048 395.945 512.624C398.345 510.608 401.033 506.992 402.441 503.888L400.681 502.864ZM402.281 491.312C400.617 494.576 397.577 498.256 394.441 500.688C394.953 501.072 395.721 501.744 396.073 502.192C399.273 499.568 402.377 495.952 404.361 492.368L402.281 491.312ZM417.353 494.352H420.777V498.192H417.353V494.352ZM412.201 494.352H415.561V498.192H412.201V494.352ZM407.177 494.352H410.377V498.192H407.177V494.352ZM405.097 492.496V500.08H422.953V492.496H405.097ZM408.137 499.216C406.953 501.904 404.969 504.432 402.761 506.128C403.273 506.448 404.169 507.184 404.553 507.536C406.761 505.68 408.969 502.8 410.281 499.76L408.137 499.216ZM407.657 502.256L406.665 504.24H422.153V502.256H407.657ZM421.385 502.256V502.736C421.097 513.488 420.745 517.232 420.137 518.032C419.881 518.416 419.625 518.48 419.177 518.48C418.729 518.48 417.705 518.48 416.521 518.384C416.841 518.96 417.065 519.888 417.097 520.496C418.345 520.56 419.529 520.592 420.233 520.496C421.065 520.4 421.609 520.144 422.121 519.44C422.985 518.32 423.273 514.512 423.625 503.344C423.625 503.024 423.625 502.256 423.625 502.256H421.385ZM407.657 508.432H416.393V511.408H407.657V508.432ZM405.737 506.768V513.072H418.345V506.768H405.737ZM411.113 504.88V517.136L413.033 516.784V504.88H411.113ZM404.361 516.432L404.585 518.48C407.945 518.16 412.713 517.68 417.321 517.232V515.376C412.457 515.792 407.529 516.208 404.361 516.432ZM415.145 513.904C416.137 515.376 417.065 517.328 417.417 518.672L419.209 518C418.825 516.72 417.833 514.768 416.809 513.328L415.145 513.904ZM443.172 512.304V514.416H471.748V512.304H443.172ZM456.1 491.12V495.184H458.596V491.12H456.1ZM446.18 506.48V508.432H466.372V506.48H446.18ZM456.132 510.416V518.064C456.132 518.544 455.94 518.672 455.364 518.704C454.82 518.704 452.612 518.736 450.436 518.672C450.756 519.248 451.14 520.048 451.268 520.656C454.148 520.656 456.004 520.656 457.124 520.368C458.244 520.048 458.628 519.472 458.628 518.128V510.416H456.132ZM465.828 506.48V506.96C463.812 508.304 459.908 509.808 456.58 510.64C456.932 510.96 457.508 511.6 457.796 512.016C461.572 511.088 465.732 509.488 468.612 507.696L467.012 506.384L466.468 506.48H465.828ZM449.892 499.856H465.028V502.736H449.892V499.856ZM447.524 498.064V504.528H467.524V498.064H447.524ZM443.46 493.936V496.016H471.332V493.936H443.46Z" fill="black"/>
<line x1="346" y1="429.5" x2="425" y2="429.5" stroke="black" stroke-width="15"/>
<defs>
<filter id="filter0_f_413_93" x="0.568604" y="0.568542" width="767.863" height="767.863" filterUnits="userSpaceOnUse" color-interpolation-filters="sRGB">
<feFlood flood-opacity="0" result="BackgroundImageFix"/>
<feBlend mode="normal" in="SourceGraphic" in2="BackgroundImageFix" result="shape"/>
<feGaussianBlur stdDeviation="50" result="effect1_foregroundBlur_413_93"/>
</filter>
<linearGradient id="paint0_linear_413_93" x1="991.624" y1="12.2162" x2="385.523" y2="464.357" gradientUnits="userSpaceOnUse">
<stop stop-color="#B5CEF0"/>
<stop offset="0.566093" stop-color="#FFF6F6"/>
<stop offset="1" stop-color="#FFE2E2"/>
</linearGradient>
<linearGradient id="paint1_linear_413_93" x1="991.624" y1="12.2162" x2="385.523" y2="464.357" gradientUnits="userSpaceOnUse">
<stop stop-color="#D3E2F7"/>
<stop offset="0.566093" stop-color="#FFF6F6"/>
<stop offset="1" stop-color="#FFE2E2"/>
</linearGradient>
</defs>
</svg>
